<svg width="56" height="56" viewBox="0 0 56 56" fill="none" xmlns="http://www.w3.org/2000/svg">
<rect width="56" height="56" rx="16" fill="#2D96D3"/>
<path fill-rule="evenodd" clip-rule="evenodd" d="M27.6375 41.2182C27.7851 41.2954 27.9502 41.3346 28.1153 41.3333C28.2805 41.332 28.4442 41.2915 28.5932 41.213L33.3504 38.67C34.6994 37.9509 35.7558 37.1468 36.58 36.2106C38.372 34.171 39.3505 31.5678 39.3331 28.8835L39.2767 20.0293C39.2713 19.0095 38.6015 18.0995 37.6109 17.7687L28.761 14.7994C28.2281 14.619 27.6442 14.6229 27.1207 14.8086L18.3043 17.8838C17.3191 18.2276 16.6614 19.1442 16.6667 20.1653L16.7231 29.013C16.7405 31.7011 17.7527 34.2926 19.5742 36.3113C20.4064 37.2344 21.4722 38.0267 22.836 38.734L27.6375 41.2182ZM26.3781 30.8119C26.5768 31.0028 26.8345 31.097 27.0922 31.0943C27.35 31.093 27.6063 30.9963 27.8023 30.8028L33.0011 25.6775C33.3917 25.2918 33.3877 24.672 32.9931 24.2916C32.5971 23.9111 31.9595 23.9137 31.5689 24.2994L27.0775 28.7265L25.2385 26.9588C24.8425 26.5783 24.2063 26.5823 23.8143 26.968C23.4237 27.3537 23.4277 27.9734 23.8237 28.3539L26.3781 30.8119Z" fill="white"/>
</svg>
