<svg width="56" height="56" viewBox="0 0 56 56" fill="none" xmlns="http://www.w3.org/2000/svg">
<rect width="56" height="56" rx="16" fill="#2D96D3"/>
<path d="M28 18.4C22.7065 18.4 18.4 22.7065 18.4 28C18.4 33.2935 22.7065 37.6 28 37.6C33.2935 37.6 37.6 33.2935 37.6 28C37.6 22.7065 33.2935 18.4 28 18.4ZM28 27.4667C29.4703 27.4667 30.6667 28.663 30.6667 30.1333C30.6667 31.421 29.749 32.4983 28.5333 32.7461V33.8667H27.4667V32.7461C26.251 32.4983 25.3333 31.421 25.3333 30.1333H26.4C26.4 31.0156 27.1177 31.7333 28 31.7333C28.8823 31.7333 29.6 31.0156 29.6 30.1333C29.6 29.251 28.8823 28.5333 28 28.5333C26.5297 28.5333 25.3333 27.337 25.3333 25.8667C25.3333 24.579 26.251 23.5017 27.4667 23.2539V22.1333H28.5333V23.2539C29.749 23.5017 30.6667 24.579 30.6667 25.8667H29.6C29.6 24.9844 28.8823 24.2667 28 24.2667C27.1177 24.2667 26.4 24.9844 26.4 25.8667C26.4 26.749 27.1177 27.4667 28 27.4667Z" fill="white"/>
<path d="M28 15.2C20.944 15.2 15.2 20.944 15.2 28C15.2 35.056 20.944 40.8 28 40.8C35.056 40.8 40.8 35.056 40.8 28C40.8 20.944 35.056 15.2 28 15.2ZM28 38.6667C22.1185 38.6667 17.3333 33.8815 17.3333 28C17.3333 22.1185 22.1185 17.3333 28 17.3333C33.8815 17.3333 38.6667 22.1185 38.6667 28C38.6667 33.8815 33.8815 38.6667 28 38.6667Z" fill="white"/>
</svg>
