<svg width="56" height="56" viewBox="0 0 56 56" fill="none" xmlns="http://www.w3.org/2000/svg">
<rect width="56" height="56" rx="16" fill="#2D96D3"/>
<path fill-rule="evenodd" clip-rule="evenodd" d="M35.3636 21.8614V23.9058C37.6601 24.6226 39.3333 26.7015 39.3333 29.1846V35.7671C39.3333 38.8411 36.7848 41.3334 33.6429 41.3334H22.3584C19.2151 41.3334 16.6667 38.8411 16.6667 35.7671V29.1846C16.6667 26.7015 18.3413 24.6226 20.6364 23.9058V21.8614C20.6499 17.8864 23.9422 14.6667 27.9797 14.6667C32.0713 14.6667 35.3636 17.8864 35.3636 21.8614ZM28.0068 16.9854C30.7571 16.9854 32.9926 19.1716 32.9926 21.8614V23.6183H23.0074V21.8349C23.0209 19.1584 25.2564 16.9854 28.0068 16.9854ZM29.1855 33.9399C29.1855 34.5892 28.6571 35.1059 27.9932 35.1059C27.3429 35.1059 26.8145 34.5892 26.8145 33.9399V30.9985C26.8145 30.3625 27.3429 29.8457 27.9932 29.8457C28.6571 29.8457 29.1855 30.3625 29.1855 30.9985V33.9399Z" fill="white"/>
</svg>
